<?xml version="1.0" encoding="UTF-8" standalone="no"?>
<!-- Created with Inkscape (http://www.inkscape.org/) -->

<svg
   xmlns:dc="http://purl.org/dc/elements/1.1/"
   xmlns:cc="http://creativecommons.org/ns#"
   xmlns:rdf="http://www.w3.org/1999/02/22-rdf-syntax-ns#"
   xmlns:svg="http://www.w3.org/2000/svg"
   xmlns="http://www.w3.org/2000/svg"
   xmlns:xlink="http://www.w3.org/1999/xlink"
   xmlns:sodipodi="http://sodipodi.sourceforge.net/DTD/sodipodi-0.dtd"
   xmlns:inkscape="http://www.inkscape.org/namespaces/inkscape"
   width="12"
   height="32"
   id="svg2"
   version="1.1"
   inkscape:version="0.48.5 r10040"
   sodipodi:docname="scrollbar-border.svg">
  <defs
     id="defs4">
    <linearGradient
       id="linearGradient3800">
      <stop
         style="stop-color:#778592;stop-opacity:1;"
         offset="0"
         id="stop3802" />
      <stop
         style="stop-color:#8c99a6;stop-opacity:1;"
         offset="1"
         id="stop3804" />
    </linearGradient>
    <linearGradient
       inkscape:collect="always"
       xlink:href="#linearGradient3800"
       id="linearGradient3806"
       x1="3.6875"
       y1="1036.4068"
       x2="9.3571429"
       y2="1036.4068"
       gradientUnits="userSpaceOnUse" />
  </defs>
  <sodipodi:namedview
     id="base"
     pagecolor="#ffffff"
     bordercolor="#666666"
     borderopacity="1.0"
     inkscape:pageopacity="0.0"
     inkscape:pageshadow="2"
     inkscape:zoom="22.4"
     inkscape:cx="-9.2137688"
     inkscape:cy="14.800445"
     inkscape:document-units="px"
     inkscape:current-layer="layer1"
     showgrid="true"
     inkscape:window-width="1920"
     inkscape:window-height="1055"
     inkscape:window-x="0"
     inkscape:window-y="20"
     inkscape:window-maximized="1">
    <inkscape:grid
       type="xygrid"
       id="grid2985"
       empspacing="5"
       visible="true"
       enabled="true"
       snapvisiblegridlinesonly="true" />
  </sodipodi:namedview>
  <metadata
     id="metadata7">
    <rdf:RDF>
      <cc:Work
         rdf:about="">
        <dc:format>image/svg+xml</dc:format>
        <dc:type
           rdf:resource="http://purl.org/dc/dcmitype/StillImage" />
        <dc:title />
      </cc:Work>
    </rdf:RDF>
  </metadata>
  <g
     inkscape:label="Ebene 1"
     inkscape:groupmode="layer"
     id="layer1"
     transform="translate(0,-1020.3622)">
    <rect
       style="fill:url(#linearGradient3806);fill-opacity:1"
       id="rect3798"
       width="5.6696429"
       height="28.714285"
       x="3.6875"
       y="1022.0497"
       ry="2.5637755" />
    <path
       style="fill:#4e5760;fill-opacity:1"
       d="M 6.5 1 C 4.561 1 3 2.561 3 4.5 L 3 27.5 C 3 29.439 4.561 31 6.5 31 C 8.439 31 10 29.439 10 27.5 L 10 4.5 C 10 2.561 8.439 1 6.5 1 z M 6.5 2 C 7.885 2 9 3.115 9 4.5 L 9 27.5 C 9 28.885 7.885 30 6.5 30 C 5.115 30 4 28.885 4 27.5 L 4 4.5 C 4 3.115 5.115 2 6.5 2 z "
       transform="translate(0,1020.3622)"
       id="rect3755" />
  </g>
</svg>
