<?xml version="1.0" encoding="UTF-8" standalone="no"?>
<!-- Created with Inkscape (http://www.inkscape.org/) -->

<svg
   xmlns:dc="http://purl.org/dc/elements/1.1/"
   xmlns:cc="http://creativecommons.org/ns#"
   xmlns:rdf="http://www.w3.org/1999/02/22-rdf-syntax-ns#"
   xmlns:svg="http://www.w3.org/2000/svg"
   xmlns="http://www.w3.org/2000/svg"
   xmlns:sodipodi="http://sodipodi.sourceforge.net/DTD/sodipodi-0.dtd"
   xmlns:inkscape="http://www.inkscape.org/namespaces/inkscape"
   width="11"
   height="64"
   id="svg2"
   version="1.1"
   inkscape:version="0.48.5 r10040"
   sodipodi:docname="slider_trough_vertical_dark.svg">
  <defs
     id="defs4" />
  <sodipodi:namedview
     id="base"
     pagecolor="#ebebeb"
     bordercolor="#666666"
     borderopacity="1.0"
     inkscape:pageopacity="0.58039216"
     inkscape:pageshadow="2"
     inkscape:zoom="16"
     inkscape:cx="2.6089432"
     inkscape:cy="14.134424"
     inkscape:document-units="px"
     inkscape:current-layer="layer1"
     showgrid="true"
     showguides="true"
     inkscape:guide-bbox="true"
     inkscape:window-width="1366"
     inkscape:window-height="743"
     inkscape:window-x="0"
     inkscape:window-y="20"
     inkscape:window-maximized="1">
    <inkscape:grid
       type="xygrid"
       id="grid2985"
       empspacing="5"
       visible="true"
       enabled="true"
       snapvisiblegridlinesonly="true" />
  </sodipodi:namedview>
  <metadata
     id="metadata7">
    <rdf:RDF>
      <cc:Work
         rdf:about="">
        <dc:format>image/svg+xml</dc:format>
        <dc:type
           rdf:resource="http://purl.org/dc/dcmitype/StillImage" />
        <dc:title />
      </cc:Work>
    </rdf:RDF>
  </metadata>
  <g
     inkscape:label="Ebene 1"
     inkscape:groupmode="layer"
     id="layer1"
     transform="translate(0,-988.3622)">
    <g
       id="g3013"
       transform="matrix(0,-1,1,0,-1041.3614,1052.3622)">
      <path
         inkscape:connector-curvature="0"
         id="rect3809-9"
         d="m 5,1041.3606 c -2.77,0 -5,2.4534 -5,5.5007 0,3.0475 2.23,5.5009 5,5.5009 l 54,0 c 2.77,0 5,-2.4534 5,-5.5009 0,-3.0473 -2.23,-5.5007 -5,-5.5007 l -54,0 z m 0,1.1001 54,0 c 2.216,0 4,1.9627 4,4.4006 0,2.4381 -1.784,4.4007 -4,4.4007 l -54,0 c -2.216,0 -4,-1.9626 -4,-4.4007 0,-2.4379 1.784,-4.4006 4,-4.4006 z"
         style="fill:#ffffff;fill-opacity:0.10196078" />
      <path
         inkscape:connector-curvature="0"
         id="rect3809"
         d="m 5,1041.3622 c -2.77,0 -5,2.23 -5,5 0,2.77 2.23,5 5,5 l 54,0 c 2.77,0 5,-2.23 5,-5 0,-2.77 -2.23,-5 -5,-5 l -54,0 z m 0,1 54,0 c 2.216,0 4,1.784 4,4 0,2.216 -1.784,4 -4,4 l -54,0 c -2.216,0 -4,-1.784 -4,-4 0,-2.216 1.784,-4 4,-4 z"
         style="fill:#191b1d;fill-opacity:1" />
    </g>
  </g>
</svg>
