<?xml version="1.0" encoding="UTF-8" standalone="no"?>
<!-- Created with Inkscape (http://www.inkscape.org/) -->

<svg
   xmlns:dc="http://purl.org/dc/elements/1.1/"
   xmlns:cc="http://creativecommons.org/ns#"
   xmlns:rdf="http://www.w3.org/1999/02/22-rdf-syntax-ns#"
   xmlns:svg="http://www.w3.org/2000/svg"
   xmlns="http://www.w3.org/2000/svg"
   xmlns:xlink="http://www.w3.org/1999/xlink"
   xmlns:sodipodi="http://sodipodi.sourceforge.net/DTD/sodipodi-0.dtd"
   xmlns:inkscape="http://www.inkscape.org/namespaces/inkscape"
   width="11"
   height="64"
   id="svg2"
   version="1.1"
   inkscape:version="0.48.4 r9939"
   sodipodi:docname="slider_trough_highlight_vertical_dark.svg">
  <defs
     id="defs4">
    <linearGradient
       id="linearGradient3761">
      <stop
         style="stop-color:#586b7e;stop-opacity:1;"
         offset="0"
         id="stop3763" />
      <stop
         style="stop-color:#313b45;stop-opacity:1;"
         offset="1"
         id="stop3765" />
    </linearGradient>
    <linearGradient
       inkscape:collect="always"
       xlink:href="#linearGradient3761-0"
       id="linearGradient3767-4"
       x1="27"
       y1="3"
       x2="27"
       y2="7"
       gradientUnits="userSpaceOnUse"
       gradientTransform="matrix(0.96930804,0,0,1.5357143,1.9642857,-2.5892)" />
    <linearGradient
       inkscape:collect="always"
       id="linearGradient3761-0">
      <stop
         style="stop-color:#4a5a6a;stop-opacity:1"
         offset="0"
         id="stop3763-5" />
      <stop
         style="stop-color:#343f4a;stop-opacity:1"
         offset="1"
         id="stop3765-6" />
    </linearGradient>
  </defs>
  <sodipodi:namedview
     id="base"
     pagecolor="#ebebeb"
     bordercolor="#666666"
     borderopacity="1.0"
     inkscape:pageopacity="0.58039216"
     inkscape:pageshadow="2"
     inkscape:zoom="11.2"
     inkscape:cx="-24.869936"
     inkscape:cy="32.760434"
     inkscape:document-units="px"
     inkscape:current-layer="layer1"
     showgrid="true"
     showguides="true"
     inkscape:guide-bbox="true"
     inkscape:window-width="1920"
     inkscape:window-height="1055"
     inkscape:window-x="0"
     inkscape:window-y="20"
     inkscape:window-maximized="1">
    <inkscape:grid
       type="xygrid"
       id="grid2985"
       empspacing="5"
       visible="true"
       enabled="true"
       snapvisiblegridlinesonly="true" />
  </sodipodi:namedview>
  <metadata
     id="metadata7">
    <rdf:RDF>
      <cc:Work
         rdf:about="">
        <dc:format>image/svg+xml</dc:format>
        <dc:type
           rdf:resource="http://purl.org/dc/dcmitype/StillImage" />
        <dc:title />
      </cc:Work>
    </rdf:RDF>
  </metadata>
  <g
     inkscape:label="Ebene 1"
     inkscape:groupmode="layer"
     id="layer1"
     transform="translate(0,-988.3622)">
    <path
       style="fill:#ffffff;fill-opacity:0.10196079"
       d="m 11,993.36216 c 0,-2.77 -2.23,-5 -5,-5 -2.77,0 -5,2.23 -5,5 l 0,54.00004 c 0,2.77 2.23,5 5,5 2.77,0 5,-2.23 5,-5 l 0,-54.00004 z m -1.0000001,0 0,54.00004 c 0,2.216 -1.7839999,4 -3.9999999,4 -2.216,0 -4,-1.784 -4,-4 l 0,-54.00004 c 0,-2.216 1.784,-4 4,-4 2.216,0 3.9999999,1.784 3.9999999,4 z"
       id="rect3809-7"
       inkscape:connector-curvature="0" />
    <path
       style="fill:#1b1e21;fill-opacity:1"
       d="m 8,993.36216 c 0,-1.662 -1.338,-3 -3,-3 -1.662,0 -3,1.338 -3,3 l 0,54.00004 c 0,1.662 1.338,3 3,3 1.662,0 3,-1.338 3,-3 l 0,-54.00004 z m -1,0 0,54.00004 c 0,1.108 -0.892,2 -2,2 -1.108,0 -2,-0.892 -2,-2 l 0,-54.00004 c 0,-1.108 0.892,-2 2,-2 1.108,0 2,0.892 2,2 z"
       id="rect3858"
       inkscape:connector-curvature="0" />
    <path
       style="fill:#191b1d;fill-opacity:1"
       d="m 9.9999997,993.36216 c 0,-2.77 -2.2299997,-5 -4.9999997,-5 -2.77,0 -5,2.23 -5,5 l 0,54.00004 c 0,2.77 2.23,5 5,5 2.77,0 4.9999997,-2.23 4.9999997,-5 l 0,-54.00004 z m -0.9999997,0 0,54.00004 c 0,2.216 -1.784,4 -4,4 -2.216,0 -4,-1.784 -4,-4 l 0,-54.00004 c 0,-2.216 1.784,-4 4,-4 2.216,0 4,1.784 4,4 z"
       id="rect3809"
       inkscape:connector-curvature="0" />
    <path
       style="fill:#25292d;fill-opacity:1"
       d="m 9,993.36216 c 0,-2.216 -1.784,-4 -4,-4 -2.216,0 -4,1.784 -4,4 l 0,54.00004 c 0,2.216 1.784,4 4,4 2.216,0 4,-1.784 4,-4 l 0,-54.00004 z m -1,0 0,54.00004 c 0,1.662 -1.338,3 -3,3 -1.662,0 -3,-1.338 -3,-3 l 0,-54.00004 c 0,-1.662 1.338,-3 3,-3 1.662,0 3,1.338 3,3 z"
       id="rect3855"
       inkscape:connector-curvature="0" />
  </g>
</svg>
