<?xml version="1.0" encoding="UTF-8" standalone="no"?>
<!-- Created with Inkscape (http://www.inkscape.org/) -->

<svg
   xmlns:dc="http://purl.org/dc/elements/1.1/"
   xmlns:cc="http://creativecommons.org/ns#"
   xmlns:rdf="http://www.w3.org/1999/02/22-rdf-syntax-ns#"
   xmlns:svg="http://www.w3.org/2000/svg"
   xmlns="http://www.w3.org/2000/svg"
   xmlns:sodipodi="http://sodipodi.sourceforge.net/DTD/sodipodi-0.dtd"
   xmlns:inkscape="http://www.inkscape.org/namespaces/inkscape"
   width="11"
   height="64"
   id="svg2"
   version="1.1"
   inkscape:version="0.48.5 r10040"
   sodipodi:docname="slider_trough_highlight_vertical.svg">
  <defs
     id="defs4" />
  <sodipodi:namedview
     id="base"
     pagecolor="#ebebeb"
     bordercolor="#666666"
     borderopacity="1.0"
     inkscape:pageopacity="0.58039216"
     inkscape:pageshadow="2"
     inkscape:zoom="11.2"
     inkscape:cx="-38.651602"
     inkscape:cy="27.874237"
     inkscape:document-units="px"
     inkscape:current-layer="layer1"
     showgrid="true"
     showguides="true"
     inkscape:guide-bbox="true"
     inkscape:window-width="1920"
     inkscape:window-height="1055"
     inkscape:window-x="0"
     inkscape:window-y="20"
     inkscape:window-maximized="1">
    <inkscape:grid
       type="xygrid"
       id="grid2985"
       empspacing="5"
       visible="true"
       enabled="true"
       snapvisiblegridlinesonly="true" />
  </sodipodi:namedview>
  <metadata
     id="metadata7">
    <rdf:RDF>
      <cc:Work
         rdf:about="">
        <dc:format>image/svg+xml</dc:format>
        <dc:type
           rdf:resource="http://purl.org/dc/dcmitype/StillImage" />
        <dc:title />
      </cc:Work>
    </rdf:RDF>
  </metadata>
  <g
     inkscape:label="Ebene 1"
     inkscape:groupmode="layer"
     id="layer1"
     transform="translate(0,-988.3622)">
    <path
       style="fill:#ffffff;fill-opacity:1;opacity:0.75"
       d="m 11,993.36221 c 0,-2.77 -2.23,-5 -5,-5 -2.77,0 -5,2.23 -5,5 l 0,53.99999 c 0,2.77 2.23,5 5,5 2.77,0 5,-2.23 5,-5 l 0,-53.99999 z m -1,0 0,53.99999 c 0,2.216 -1.784,4 -4,4 -2.216,0 -4,-1.784 -4,-4 l 0,-53.99999 c 0,-2.216 1.784,-4 4,-4 2.216,0 4,1.784 4,4 z"
       id="rect3809-3"
       inkscape:connector-curvature="0" />
    <path
       style="fill:#4e5760;fill-opacity:1"
       d="m 8,993.36221 c 0,-1.662 -1.338,-3 -3,-3 -1.662,0 -3,1.338 -3,3 l 0,53.99999 c 0,1.662 1.338,3 3,3 1.662,0 3,-1.338 3,-3 l 0,-53.99999 z m -1,0 0,53.99999 c 0,1.108 -0.892,2 -2,2 -1.108,0 -2,-0.892 -2,-2 l 0,-53.99999 c 0,-1.108 0.892,-2 2,-2 1.108,0 2,0.892 2,2 z"
       id="rect3858"
       inkscape:connector-curvature="0" />
    <path
       style="fill:#a6a9ac;fill-opacity:1"
       d="m 9.9999997,993.36221 c 0,-2.77 -2.2299997,-5 -4.9999997,-5 -2.77,0 -5,2.23 -5,5 l 0,53.99999 c 0,2.77 2.23,5 5,5 2.77,0 4.9999997,-2.23 4.9999997,-5 l 0,-53.99999 z m -0.9999997,0 0,53.99999 c 0,2.216 -1.784,4 -4,4 -2.216,0 -4,-1.784 -4,-4 l 0,-53.99999 c 0,-2.216 1.784,-4 4,-4 2.216,0 4,1.784 4,4 z"
       id="rect3809"
       inkscape:connector-curvature="0" />
    <path
       style="fill:#ffffff;fill-opacity:1"
       d="m 9,993.36221 c 0,-2.216 -1.784,-4 -4,-4 -2.216,0 -4,1.784 -4,4 l 0,53.99999 c 0,2.216 1.784,4 4,4 2.216,0 4,-1.784 4,-4 l 0,-53.99999 z m -1,0 0,53.99999 c 0,1.662 -1.338,3 -3,3 -1.662,0 -3,-1.338 -3,-3 l 0,-53.99999 c 0,-1.662 1.338,-3 3,-3 1.662,0 3,1.338 3,3 z"
       id="rect3855"
       inkscape:connector-curvature="0" />
  </g>
</svg>
