<?xml version="1.0" encoding="UTF-8" standalone="no"?>
<!-- Created with Inkscape (http://www.inkscape.org/) -->

<svg
   xmlns:dc="http://purl.org/dc/elements/1.1/"
   xmlns:cc="http://creativecommons.org/ns#"
   xmlns:rdf="http://www.w3.org/1999/02/22-rdf-syntax-ns#"
   xmlns:svg="http://www.w3.org/2000/svg"
   xmlns="http://www.w3.org/2000/svg"
   xmlns:xlink="http://www.w3.org/1999/xlink"
   xmlns:sodipodi="http://sodipodi.sourceforge.net/DTD/sodipodi-0.dtd"
   xmlns:inkscape="http://www.inkscape.org/namespaces/inkscape"
   width="12"
   height="66"
   id="svg2"
   version="1.1"
   inkscape:version="0.48.4 r9939"
   sodipodi:docname="progressbar_border_vertical.svg">
  <defs
     id="defs4">
    <linearGradient
       id="linearGradient3761">
      <stop
         style="stop-color:#586b7e;stop-opacity:1;"
         offset="0"
         id="stop3763" />
      <stop
         style="stop-color:#313b45;stop-opacity:1;"
         offset="1"
         id="stop3765" />
    </linearGradient>
    <linearGradient
       inkscape:collect="always"
       xlink:href="#linearGradient3761-0"
       id="linearGradient3767-4"
       x1="27"
       y1="3"
       x2="27"
       y2="7"
       gradientUnits="userSpaceOnUse"
       gradientTransform="matrix(0.96930804,0,0,1.5357143,1.9642857,-2.5892)" />
    <linearGradient
       inkscape:collect="always"
       id="linearGradient3761-0">
      <stop
         style="stop-color:#4a5a6a;stop-opacity:1"
         offset="0"
         id="stop3763-5" />
      <stop
         style="stop-color:#343f4a;stop-opacity:1"
         offset="1"
         id="stop3765-6" />
    </linearGradient>
  </defs>
  <sodipodi:namedview
     id="base"
     pagecolor="#ebebeb"
     bordercolor="#666666"
     borderopacity="1.0"
     inkscape:pageopacity="0.58039216"
     inkscape:pageshadow="2"
     inkscape:zoom="11.2"
     inkscape:cx="13.729455"
     inkscape:cy="36.389567"
     inkscape:document-units="px"
     inkscape:current-layer="layer1"
     showgrid="true"
     showguides="true"
     inkscape:guide-bbox="true"
     inkscape:window-width="1920"
     inkscape:window-height="1055"
     inkscape:window-x="0"
     inkscape:window-y="20"
     inkscape:window-maximized="1">
    <inkscape:grid
       type="xygrid"
       id="grid2985"
       empspacing="5"
       visible="true"
       enabled="true"
       snapvisiblegridlinesonly="true" />
  </sodipodi:namedview>
  <metadata
     id="metadata7">
    <rdf:RDF>
      <cc:Work
         rdf:about="">
        <dc:format>image/svg+xml</dc:format>
        <dc:type
           rdf:resource="http://purl.org/dc/dcmitype/StillImage" />
        <dc:title></dc:title>
      </cc:Work>
    </rdf:RDF>
  </metadata>
  <g
     inkscape:label="Ebene 1"
     inkscape:groupmode="layer"
     id="layer1"
     transform="translate(0,-986.3622)">
    <path
       style="opacity:0.17013891;fill:#000000;fill-opacity:1"
       d="m 9,993.3622 c 0,-1.662 -1.338,-3 -3,-3 -1.662,0 -3,1.338 -3,3 l 0,54 c 0,1.662 1.338,3 3,3 1.662,0 3,-1.338 3,-3 l 0,-54 z m -1,0 0,54 c 0,1.108 -0.892,2 -2,2 -1.108,0 -2,-0.892 -2,-2 l 0,-54 c 0,-1.108 0.892,-2 2,-2 1.108,0 2,0.892 2,2 z"
       id="rect3858-1"
       inkscape:connector-curvature="0" />
    <path
       style="fill:#191b1d;fill-opacity:1"
       d="m 9,992.3622 c 0,-1.662 -1.338,-3 -3,-3 -1.662,0 -3,1.338 -3,3 l 0,54 c 0,1.662 1.338,3 3,3 1.662,0 3,-1.338 3,-3 l 0,-54 z m -1,0 0,54 c 0,1.108 -0.892,2 -2,2 -1.108,0 -2,-0.892 -2,-2 l 0,-54 c 0,-1.108 0.892,-2 2,-2 1.108,0 2,0.892 2,2 z"
       id="rect3858"
       inkscape:connector-curvature="0" />
  </g>
</svg>
