<?xml version="1.0" encoding="UTF-8" standalone="no"?>
<!-- Created with Inkscape (http://www.inkscape.org/) -->

<svg
   xmlns:dc="http://purl.org/dc/elements/1.1/"
   xmlns:cc="http://creativecommons.org/ns#"
   xmlns:rdf="http://www.w3.org/1999/02/22-rdf-syntax-ns#"
   xmlns:svg="http://www.w3.org/2000/svg"
   xmlns="http://www.w3.org/2000/svg"
   xmlns:sodipodi="http://sodipodi.sourceforge.net/DTD/sodipodi-0.dtd"
   xmlns:inkscape="http://www.inkscape.org/namespaces/inkscape"
   width="32"
   height="32"
   id="svg2"
   version="1.1"
   inkscape:version="0.48.4 r9939"
   sodipodi:docname="workspace-thumb-bg.svg">
  <defs
     id="defs4" />
  <sodipodi:namedview
     id="base"
     pagecolor="#ffffff"
     bordercolor="#666666"
     borderopacity="1.0"
     inkscape:pageopacity="0.0"
     inkscape:pageshadow="2"
     inkscape:zoom="15.839192"
     inkscape:cx="19.348905"
     inkscape:cy="17.096186"
     inkscape:document-units="px"
     inkscape:current-layer="layer1"
     showgrid="true"
     inkscape:window-width="1366"
     inkscape:window-height="743"
     inkscape:window-x="0"
     inkscape:window-y="20"
     inkscape:window-maximized="1">
    <inkscape:grid
       type="xygrid"
       id="grid2985"
       empspacing="5"
       visible="true"
       enabled="true"
       snapvisiblegridlinesonly="true" />
  </sodipodi:namedview>
  <metadata
     id="metadata7">
    <rdf:RDF>
      <cc:Work
         rdf:about="">
        <dc:format>image/svg+xml</dc:format>
        <dc:type
           rdf:resource="http://purl.org/dc/dcmitype/StillImage" />
        <dc:title></dc:title>
      </cc:Work>
    </rdf:RDF>
  </metadata>
  <g
     inkscape:label="Ebene 1"
     inkscape:groupmode="layer"
     id="layer1"
     transform="translate(0,-1020.3622)">
    <path
       style="fill:#ffffff;fill-opacity:0.31372549"
       d="m 5.6336061,1020.3622 c -3.1210178,0 -5.6336061,1.784 -5.6336061,4 l 0,24 c 0,2.216 2.5125883,4 5.6336061,4 l 33.8016369,0 c 3.121017,0 5.633606,-1.784 5.633606,-4 l 0,-24 c 0,-2.216 -2.512589,-4 -5.633606,-4 l -33.8016369,0 z m 0,1 33.8016369,0 c 2.340763,0 4.225204,1.338 4.225204,3 l 0,24 c 0,1.662 -1.884441,3 -4.225204,3 l -33.8016369,0 c -2.3407634,0 -4.2252046,-1.338 -4.2252046,-3 l 0,-24 c 0,-1.662 1.8844412,-3 4.2252046,-3 z"
       id="rect2987"
       inkscape:connector-curvature="0" />
    <rect
       style="fill:#1a1f24;fill-opacity:0.89803922"
       id="rect3761"
       width="42.626907"
       height="30"
       x="1"
       y="1021.3622"
       ry="3" />
  </g>
</svg>
