<?xml version="1.0" encoding="UTF-8" standalone="no"?>
<!-- Created with Inkscape (http://www.inkscape.org/) -->

<svg
   xmlns:dc="http://purl.org/dc/elements/1.1/"
   xmlns:cc="http://creativecommons.org/ns#"
   xmlns:rdf="http://www.w3.org/1999/02/22-rdf-syntax-ns#"
   xmlns:svg="http://www.w3.org/2000/svg"
   xmlns="http://www.w3.org/2000/svg"
   xmlns:xlink="http://www.w3.org/1999/xlink"
   xmlns:sodipodi="http://sodipodi.sourceforge.net/DTD/sodipodi-0.dtd"
   xmlns:inkscape="http://www.inkscape.org/namespaces/inkscape"
   width="64"
   height="16"
   id="svg2"
   version="1.1"
   inkscape:version="0.48.4 r9939"
   sodipodi:docname="slider_trough_highlight.svg">
  <defs
     id="defs4">
    <linearGradient
       inkscape:collect="always"
       id="linearGradient3828">
      <stop
         style="stop-color:#ffffff;stop-opacity:1"
         offset="0"
         id="stop3830" />
      <stop
         style="stop-color:#f5f5f5;stop-opacity:1"
         offset="1"
         id="stop3832" />
    </linearGradient>
    <linearGradient
       inkscape:collect="always"
       id="linearGradient3820">
      <stop
         style="stop-color:#e8e8e8;stop-opacity:1"
         offset="0"
         id="stop3822" />
      <stop
         style="stop-color:#ffffff;stop-opacity:1"
         offset="1"
         id="stop3824" />
    </linearGradient>
    <linearGradient
       id="linearGradient3772">
      <stop
         style="stop-color:#ffffff;stop-opacity:1;"
         offset="0"
         id="stop3774" />
      <stop
         style="stop-color:#e9e9e9;stop-opacity:1;"
         offset="1"
         id="stop3776" />
    </linearGradient>
    <linearGradient
       id="linearGradient3761">
      <stop
         style="stop-color:#586b7e;stop-opacity:1;"
         offset="0"
         id="stop3763" />
      <stop
         style="stop-color:#313b45;stop-opacity:1;"
         offset="1"
         id="stop3765" />
    </linearGradient>
    <linearGradient
       inkscape:collect="always"
       xlink:href="#linearGradient3761-0"
       id="linearGradient3767-4"
       x1="27"
       y1="3"
       x2="27"
       y2="7"
       gradientUnits="userSpaceOnUse"
       gradientTransform="matrix(0.96930804,0,0,1.5357143,1.9642857,-2.5892)" />
    <linearGradient
       inkscape:collect="always"
       id="linearGradient3761-0">
      <stop
         style="stop-color:#4a5a6a;stop-opacity:1"
         offset="0"
         id="stop3763-5" />
      <stop
         style="stop-color:#343f4a;stop-opacity:1"
         offset="1"
         id="stop3765-6" />
    </linearGradient>
    <linearGradient
       inkscape:collect="always"
       xlink:href="#linearGradient3772"
       id="linearGradient3778"
       x1="29"
       y1="7"
       x2="29"
       y2="3"
       gradientUnits="userSpaceOnUse"
       gradientTransform="translate(0,1038.3622)" />
    <linearGradient
       inkscape:collect="always"
       xlink:href="#linearGradient3820"
       id="linearGradient3826"
       x1="31"
       y1="1039.3622"
       x2="31"
       y2="1047.3622"
       gradientUnits="userSpaceOnUse" />
    <linearGradient
       inkscape:collect="always"
       xlink:href="#linearGradient3828"
       id="linearGradient3834"
       x1="23"
       y1="6"
       x2="23"
       y2="4"
       gradientUnits="userSpaceOnUse" />
  </defs>
  <sodipodi:namedview
     id="base"
     pagecolor="#ebebeb"
     bordercolor="#666666"
     borderopacity="1.0"
     inkscape:pageopacity="0.58039216"
     inkscape:pageshadow="2"
     inkscape:zoom="11.2"
     inkscape:cx="15.129092"
     inkscape:cy="18.037602"
     inkscape:document-units="px"
     inkscape:current-layer="layer1"
     showgrid="true"
     showguides="true"
     inkscape:guide-bbox="true"
     inkscape:window-width="1920"
     inkscape:window-height="1055"
     inkscape:window-x="0"
     inkscape:window-y="20"
     inkscape:window-maximized="1">
    <inkscape:grid
       type="xygrid"
       id="grid2985"
       empspacing="5"
       visible="true"
       enabled="true"
       snapvisiblegridlinesonly="true" />
  </sodipodi:namedview>
  <metadata
     id="metadata7">
    <rdf:RDF>
      <cc:Work
         rdf:about="">
        <dc:format>image/svg+xml</dc:format>
        <dc:type
           rdf:resource="http://purl.org/dc/dcmitype/StillImage" />
        <dc:title></dc:title>
      </cc:Work>
    </rdf:RDF>
  </metadata>
  <g
     inkscape:label="Ebene 1"
     inkscape:groupmode="layer"
     id="layer1"
     transform="translate(0,-1036.3622)">
    <path
       style="fill:#ffffff;fill-opacity:0.74509804"
       d="m 5,1039.3622 c -2.77,0 -5,2.23 -5,5 0,2.77 2.23,5 5,5 l 54,0 c 2.77,0 5,-2.23 5,-5 0,-2.77 -2.23,-5 -5,-5 l -54,0 z m 0,1 54,0 c 2.216,0 4,1.784 4,4 0,2.216 -1.784,4 -4,4 l -54,0 c -2.216,0 -4,-1.784 -4,-4 0,-2.216 1.784,-4 4,-4 z"
       id="rect3809-7"
       inkscape:connector-curvature="0" />
    <path
       style="fill:#a6a9ac;fill-opacity:1"
       d="m 5,1038.3622 c -2.77,0 -5,2.23 -5,5 0,2.77 2.23,5 5,5 l 54,0 c 2.77,0 5,-2.23 5,-5 0,-2.77 -2.23,-5 -5,-5 l -54,0 z m 0,1 54,0 c 2.216,0 4,1.784 4,4 0,2.216 -1.784,4 -4,4 l -54,0 c -2.216,0 -4,-1.784 -4,-4 0,-2.216 1.784,-4 4,-4 z"
       id="rect3809"
       inkscape:connector-curvature="0" />
    <path
       style="fill:url(#linearGradient3826);fill-opacity:1"
       d="m 5,1039.3622 c -2.216,0 -4,1.784 -4,4 0,2.216 1.784,4 4,4 l 54,0 c 2.216,0 4,-1.784 4,-4 0,-2.216 -1.784,-4 -4,-4 l -54,0 z m 0,1 54,0 c 1.662,0 3,1.338 3,3 0,1.662 -1.338,3 -3,3 l -54,0 c -1.662,0 -3,-1.338 -3,-3 0,-1.662 1.338,-3 3,-3 z"
       id="rect3855"
       inkscape:connector-curvature="0" />
    <rect
       style="fill:url(#linearGradient3834);fill-opacity:1"
       id="rect3818"
       width="60"
       height="6"
       x="2"
       y="4"
       transform="translate(0,1036.3622)"
       ry="3" />
  </g>
</svg>
