<?xml version="1.0" encoding="UTF-8" standalone="no"?>
<!-- Created with Inkscape (http://www.inkscape.org/) -->

<svg
   xmlns:dc="http://purl.org/dc/elements/1.1/"
   xmlns:cc="http://creativecommons.org/ns#"
   xmlns:rdf="http://www.w3.org/1999/02/22-rdf-syntax-ns#"
   xmlns:svg="http://www.w3.org/2000/svg"
   xmlns="http://www.w3.org/2000/svg"
   xmlns:sodipodi="http://sodipodi.sourceforge.net/DTD/sodipodi-0.dtd"
   xmlns:inkscape="http://www.inkscape.org/namespaces/inkscape"
   id="svg2"
   version="1.1"
   inkscape:version="0.48.5 r10040"
   width="228"
   height="32"
   sodipodi:docname="terminal_tab_active.svg">
  <metadata
     id="metadata8">
    <rdf:RDF>
      <cc:Work
         rdf:about="">
        <dc:format>image/svg+xml</dc:format>
        <dc:type
           rdf:resource="http://purl.org/dc/dcmitype/StillImage" />
        <dc:title />
      </cc:Work>
    </rdf:RDF>
  </metadata>
  <defs
     id="defs6" />
  <sodipodi:namedview
     pagecolor="#ffffff"
     bordercolor="#666666"
     borderopacity="1"
     objecttolerance="10"
     gridtolerance="10"
     guidetolerance="10"
     inkscape:pageopacity="0"
     inkscape:pageshadow="2"
     inkscape:window-width="1366"
     inkscape:window-height="743"
     id="namedview4"
     showgrid="false"
     showguides="true"
     inkscape:zoom="2.828427"
     inkscape:cx="118.37814"
     inkscape:cy="27.174097"
     inkscape:window-x="0"
     inkscape:window-y="20"
     inkscape:window-maximized="1"
     inkscape:current-layer="layer6"
     fit-margin-top="0"
     fit-margin-left="0"
     fit-margin-right="0"
     fit-margin-bottom="0">
    <inkscape:grid
       type="xygrid"
       id="grid2987"
       empspacing="5"
       visible="true"
       enabled="true"
       snapvisiblegridlinesonly="true"
       originx="0px"
       originy="0px" />
  </sodipodi:namedview>
  <g
     inkscape:groupmode="layer"
     id="layer6"
     inkscape:label="Ebene#1"
     style="display:inline"
     transform="translate(59.1105,-1052.1105)">
    <g
       id="g3916">
      <path
         id="rect3883"
         transform="translate(-59.1105,1052.1105)"
         d="M 0 0 L 0 8 L 0 12 L 0 27 C 0 31.432 3.568 35 8 35 L 220 35 C 224.432 35 228 31.432 228 27 L 228 12 L 228 8 L 228 0 L 220 0 L 8 0 L 0 0 z "
         style="opacity:0.03;fill:#000000;fill-opacity:1;stroke:#2468a0;stroke-width:0;stroke-miterlimit:4;stroke-opacity:1;stroke-dasharray:none" />
      <path
         inkscape:connector-curvature="0"
         id="rect3878"
         d="m -58.1105,1052.1105 0,7 0,2 0,18 c 0,3.878 3.122,7 7,7 l 212,0 c 3.878,0 7,-3.122 7,-7 l 0,-18 0,-2 0,-7 -7,0 -212,0 -7,0 z"
         style="opacity:0.03;fill:#000000;fill-opacity:1;stroke:#2468a0;stroke-width:0;stroke-miterlimit:4;stroke-opacity:1;stroke-dasharray:none" />
      <path
         inkscape:connector-curvature="0"
         id="rect3870"
         d="m -57.1105,1052.1105 0,6 0,2 0,19 c 0,3.324 2.676,6 6,6 l 212,0 c 3.324,0 6,-2.676 6,-6 l 0,-19 0,-2 0,-6 -6,0 -212,0 -6,0 z"
         style="opacity:0.04;fill:#000000;fill-opacity:1;stroke:#2468a0;stroke-width:0;stroke-miterlimit:4;stroke-opacity:1;stroke-dasharray:none" />
      <path
         inkscape:connector-curvature="0"
         id="rect3089"
         d="m -56.1105,1052.1105 0,5 0,2 0,20 c 0,2.77 2.23,5 5,5 l 212,0 c 2.77,0 5,-2.23 5,-5 l 0,-20 0,-2 0,-5 -5,0 -212,0 -5,0 z"
         style="opacity:0.05;fill:#000000;fill-opacity:1;stroke:#2468a0;stroke-width:0;stroke-miterlimit:4;stroke-opacity:1;stroke-dasharray:none" />
      <g
         transform="translate(-0.00380673,-0.00168262)"
         id="g3047">
        <rect
           style="fill:#1a1e23;fill-opacity:1;stroke:#2468a0;stroke-width:0;stroke-miterlimit:4;stroke-opacity:1;stroke-dasharray:none"
           id="rect4011"
           width="220"
           height="31"
           x="-55.106693"
           y="1052.1122"
           ry="4" />
        <rect
           style="fill:#303942;fill-opacity:1;stroke:#2468a0;stroke-width:0;stroke-miterlimit:4;stroke-opacity:1;stroke-dasharray:none"
           id="rect3948"
           width="218"
           height="30"
           x="-54.106693"
           y="1052.1122"
           ry="3" />
        <rect
           style="fill:#303942;fill-opacity:1;stroke:#2468a0;stroke-width:0;stroke-miterlimit:4;stroke-opacity:1;stroke-dasharray:none"
           id="rect3966"
           width="218"
           height="7"
           x="-54.106693"
           y="1052.1122" />
        <rect
           style="fill:#1a1e23;fill-opacity:1;stroke:#2468a0;stroke-width:0;stroke-miterlimit:4;stroke-opacity:1;stroke-dasharray:none"
           id="rect4015"
           width="1"
           height="4"
           x="163.89331"
           y="1052.1122"
           ry="0" />
        <rect
           style="fill:#1a1e23;fill-opacity:1;stroke:#2468a0;stroke-width:0;stroke-miterlimit:4;stroke-opacity:1;stroke-dasharray:none"
           id="rect4017"
           width="1"
           height="4"
           x="-55.106693"
           y="1052.1122" />
      </g>
      <path
         inkscape:connector-curvature="0"
         id="rect4021-0"
         d="m -55.1105,1052.1105 0,4 c 0,-2.2091 -1.79086,-4 -4,-4 l 4,0 z"
         style="fill:#1a1e23;fill-opacity:1;stroke:#2468a0;stroke-width:0;stroke-miterlimit:4;stroke-opacity:1;stroke-dasharray:none;display:inline" />
      <path
         inkscape:connector-curvature="0"
         id="rect3982-5"
         d="m -54.1105,1052.1105 0,3 c 0,-1.662 -1.338,-3 -3,-3 l 3,0 z"
         style="fill:#303942;fill-opacity:1;stroke:#2468a0;stroke-width:0;stroke-miterlimit:4;stroke-opacity:1;stroke-dasharray:none;display:inline" />
      <path
         inkscape:connector-curvature="0"
         id="rect4021-0-8"
         d="m 164.8895,1052.1105 0,4 c 0,-2.2091 1.79086,-4 4,-4 l -4,0 z"
         style="fill:#1a1e23;fill-opacity:1;stroke:#2468a0;stroke-width:0;stroke-miterlimit:4;stroke-opacity:1;stroke-dasharray:none;display:inline" />
      <path
         inkscape:connector-curvature="0"
         id="rect3982-5-6"
         d="m 163.8895,1052.1105 0,3 c 0,-1.662 1.338,-3 3,-3 l -3,0 z"
         style="fill:#303942;fill-opacity:1;stroke:#2468a0;stroke-width:0;stroke-miterlimit:4;stroke-opacity:1;stroke-dasharray:none;display:inline" />
    </g>
  </g>
</svg>
