<?xml version="1.0" encoding="UTF-8" standalone="no"?>
<!-- Created with Inkscape (http://www.inkscape.org/) -->

<svg
   xmlns:dc="http://purl.org/dc/elements/1.1/"
   xmlns:cc="http://creativecommons.org/ns#"
   xmlns:rdf="http://www.w3.org/1999/02/22-rdf-syntax-ns#"
   xmlns:svg="http://www.w3.org/2000/svg"
   xmlns="http://www.w3.org/2000/svg"
   xmlns:xlink="http://www.w3.org/1999/xlink"
   xmlns:sodipodi="http://sodipodi.sourceforge.net/DTD/sodipodi-0.dtd"
   xmlns:inkscape="http://www.inkscape.org/namespaces/inkscape"
   width="14"
   height="16"
   id="svg2985"
   version="1.1"
   inkscape:version="0.48.5 r10040"
   sodipodi:docname="slider_active.svg">
  <defs
     id="defs2987">
    <linearGradient
       id="linearGradient3814">
      <stop
         style="stop-color:#64676c;stop-opacity:1;"
         offset="0"
         id="stop3816" />
      <stop
         style="stop-color:#aeb0b4;stop-opacity:1;"
         offset="1"
         id="stop3818" />
    </linearGradient>
    <linearGradient
       id="linearGradient3806">
      <stop
         style="stop-color:#000000;stop-opacity:0.513089;"
         offset="0"
         id="stop3808" />
      <stop
         style="stop-color:#000000;stop-opacity:0.59215689;"
         offset="1"
         id="stop3810" />
    </linearGradient>
    <linearGradient
       id="linearGradient3773">
      <stop
         style="stop-color:#e3e3e3;stop-opacity:1;"
         offset="0"
         id="stop3775" />
      <stop
         id="stop3769"
         offset="0.5"
         style="stop-color:#e3e3e5;stop-opacity:1;" />
      <stop
         style="stop-color:#dcdce0;stop-opacity:1;"
         offset="1"
         id="stop3777" />
    </linearGradient>
    <linearGradient
       inkscape:collect="always"
       xlink:href="#linearGradient3773"
       id="linearGradient3779"
       x1="9"
       y1="2"
       x2="9"
       y2="14"
       gradientUnits="userSpaceOnUse" />
    <linearGradient
       inkscape:collect="always"
       xlink:href="#linearGradient3806"
       id="linearGradient3812"
       x1="8"
       y1="10"
       x2="8"
       y2="8"
       gradientUnits="userSpaceOnUse" />
    <linearGradient
       inkscape:collect="always"
       xlink:href="#linearGradient3814"
       id="linearGradient3820"
       x1="8"
       y1="15"
       x2="8"
       y2="1"
       gradientUnits="userSpaceOnUse" />
  </defs>
  <sodipodi:namedview
     id="base"
     pagecolor="#ffffff"
     bordercolor="#666666"
     borderopacity="1.0"
     inkscape:pageopacity="0.0"
     inkscape:pageshadow="2"
     inkscape:zoom="32"
     inkscape:cx="-1.818483"
     inkscape:cy="6.6072989"
     inkscape:current-layer="layer1"
     showgrid="false"
     inkscape:grid-bbox="true"
     inkscape:document-units="px"
     showguides="false"
     inkscape:guide-bbox="true"
     inkscape:window-width="1920"
     inkscape:window-height="1035"
     inkscape:window-x="0"
     inkscape:window-y="23"
     inkscape:window-maximized="1">
    <inkscape:grid
       type="xygrid"
       id="grid2993"
       empspacing="5"
       visible="true"
       enabled="true"
       snapvisiblegridlinesonly="true" />
    <sodipodi:guide
       orientation="1,0"
       position="8,8"
       id="guide2995" />
    <sodipodi:guide
       orientation="0,1"
       position="8,8"
       id="guide2997" />
  </sodipodi:namedview>
  <metadata
     id="metadata2990">
    <rdf:RDF>
      <cc:Work
         rdf:about="">
        <dc:format>image/svg+xml</dc:format>
        <dc:type
           rdf:resource="http://purl.org/dc/dcmitype/StillImage" />
        <dc:title />
      </cc:Work>
    </rdf:RDF>
  </metadata>
  <g
     id="layer1"
     inkscape:label="Layer 1"
     inkscape:groupmode="layer">
    <path
       sodipodi:type="arc"
       style="fill:#000000;fill-opacity:0.15873018000000000;opacity:0.75"
       id="path3774"
       sodipodi:cx="8"
       sodipodi:cy="9"
       sodipodi:rx="7"
       sodipodi:ry="7"
       d="M 15,9 A 7,7 0 1 1 1,9 7,7 0 1 1 15,9 z"
       transform="translate(-1,-1)" />
    <path
       sodipodi:type="arc"
       style="fill:url(#linearGradient3820);fill-opacity:1;opacity:0.9"
       id="path3769"
       sodipodi:cx="8"
       sodipodi:cy="8"
       sodipodi:rx="7"
       sodipodi:ry="7"
       d="M 15,8 A 7,7 0 1 1 1,8 7,7 0 1 1 15,8 z"
       transform="translate(-1,-1)" />
    <path
       sodipodi:type="arc"
       style="fill:url(#linearGradient3779);fill-opacity:1"
       id="path3771"
       sodipodi:cx="8"
       sodipodi:cy="8"
       sodipodi:rx="6"
       sodipodi:ry="6"
       d="M 14,8 A 6,6 0 1 1 2,8 6,6 0 1 1 14,8 z"
       transform="matrix(1,0,0,-1,-1,15)" />
    <path
       style="opacity:1;fill:#000000;fill-opacity:0.06153846;stroke:#ffffff;stroke-width:0;stroke-linejoin:round;stroke-miterlimit:4;stroke-opacity:1;stroke-dasharray:none;stroke-dashoffset:0"
       d="M 7,1 C 3.6862915,1 1,3.686292 1,7 1,7.124471 1.0237788,7.252409 1.03125,7.375 1.33851,4.349464 3.8933983,2 7,2 10.106602,2 12.66149,4.349464 12.96875,7.375 12.976221,7.252409 13,7.124471 13,7 13,3.686292 10.313709,1 7,1 z"
       id="path3773"
       inkscape:connector-curvature="0" />
    <g
       id="g3861"
       style="opacity:1">
      <path
         transform="translate(-1,-1)"
         d="M 10,8 A 2,2 0 1 1 6,8 2,2 0 1 1 10,8 z"
         sodipodi:ry="2"
         sodipodi:rx="2"
         sodipodi:cy="8"
         sodipodi:cx="8"
         id="path3785"
         style="fill:url(#linearGradient3812);fill-opacity:1"
         sodipodi:type="arc" />
      <path
         inkscape:connector-curvature="0"
         id="path3801"
         d="M 7,5 C 5.8954305,5 5,5.895431 5,7 5,8.104569 5.8954305,9 7,9 8.1045695,9 9,8.104569 9,7 9,5.895431 8.1045695,5 7,5 z M 7,6 C 7.5522847,6 8,6.447715 8,7 8,7.552285 7.5522847,8 7,8 6.4477153,8 6,7.552285 6,7 6,6.447715 6.4477153,6 7,6 z"
         style="fill:#4b4b4b;fill-opacity:0.61538464000000004;stroke:#ffffff;stroke-width:0;stroke-linejoin:round;stroke-miterlimit:4;stroke-opacity:1;stroke-dasharray:none;stroke-dashoffset:0" />
    </g>
  </g>
</svg>
