<?xml version="1.0" encoding="UTF-8" standalone="no"?>
<!-- Created with Inkscape (http://www.inkscape.org/) -->

<svg
   xmlns:dc="http://purl.org/dc/elements/1.1/"
   xmlns:cc="http://creativecommons.org/ns#"
   xmlns:rdf="http://www.w3.org/1999/02/22-rdf-syntax-ns#"
   xmlns:svg="http://www.w3.org/2000/svg"
   xmlns="http://www.w3.org/2000/svg"
   xmlns:sodipodi="http://sodipodi.sourceforge.net/DTD/sodipodi-0.dtd"
   xmlns:inkscape="http://www.inkscape.org/namespaces/inkscape"
   width="64"
   height="11"
   id="svg2"
   version="1.1"
   inkscape:version="0.48.5 r10040"
   sodipodi:docname="slider_trough_highlight.svg">
  <defs
     id="defs4" />
  <sodipodi:namedview
     id="base"
     pagecolor="#ebebeb"
     bordercolor="#666666"
     borderopacity="1.0"
     inkscape:pageopacity="0.58039216"
     inkscape:pageshadow="2"
     inkscape:zoom="15.839192"
     inkscape:cx="14.96896"
     inkscape:cy="8.0644015"
     inkscape:document-units="px"
     inkscape:current-layer="layer1"
     showgrid="true"
     showguides="true"
     inkscape:guide-bbox="true"
     inkscape:window-width="1366"
     inkscape:window-height="743"
     inkscape:window-x="0"
     inkscape:window-y="20"
     inkscape:window-maximized="1">
    <inkscape:grid
       type="xygrid"
       id="grid2985"
       empspacing="5"
       visible="true"
       enabled="true"
       snapvisiblegridlinesonly="true" />
  </sodipodi:namedview>
  <metadata
     id="metadata7">
    <rdf:RDF>
      <cc:Work
         rdf:about="">
        <dc:format>image/svg+xml</dc:format>
        <dc:type
           rdf:resource="http://purl.org/dc/dcmitype/StillImage" />
        <dc:title />
      </cc:Work>
    </rdf:RDF>
  </metadata>
  <g
     inkscape:label="Ebene 1"
     inkscape:groupmode="layer"
     id="layer1"
     transform="translate(0,-1041.3622)">
    <path
       style="fill:#ffffff;fill-opacity:0.74509805"
       d="m 5,1042.3622 c -2.77,0 -5,2.23 -5,5 0,2.77 2.23,5 5,5 l 54,0 c 2.77,0 5,-2.23 5,-5 0,-2.77 -2.23,-5 -5,-5 l -54,0 z m 0,1 54,0 c 2.216,0 4,1.784 4,4 0,2.216 -1.784,4 -4,4 l -54,0 c -2.216,0 -4,-1.784 -4,-4 0,-2.216 1.784,-4 4,-4 z"
       id="rect3809-7"
       inkscape:connector-curvature="0" />
    <path
       style="fill:#4e5760;fill-opacity:1"
       d="m 5,1043.3622 c -1.662,0 -3,1.338 -3,3 0,1.662 1.338,3 3,3 l 54,0 c 1.662,0 3,-1.338 3,-3 0,-1.662 -1.338,-3 -3,-3 l -54,0 z m 0,1 54,0 c 1.108,0 2,0.892 2,2 0,1.108 -0.892,2 -2,2 l -54,0 c -1.108,0 -2,-0.892 -2,-2 0,-1.108 0.892,-2 2,-2 z"
       id="rect3858"
       inkscape:connector-curvature="0" />
    <path
       style="fill:#a6a9ac;fill-opacity:1"
       d="m 5,1041.3622 c -2.77,0 -5,2.23 -5,5 0,2.77 2.23,5 5,5 l 54,0 c 2.77,0 5,-2.23 5,-5 0,-2.77 -2.23,-5 -5,-5 l -54,0 z m 0,1 54,0 c 2.216,0 4,1.784 4,4 0,2.216 -1.784,4 -4,4 l -54,0 c -2.216,0 -4,-1.784 -4,-4 0,-2.216 1.784,-4 4,-4 z"
       id="rect3809"
       inkscape:connector-curvature="0" />
    <path
       style="fill:#ffffff;fill-opacity:1"
       d="m 5,1042.3622 c -2.216,0 -4,1.784 -4,4 0,2.216 1.784,4 4,4 l 54,0 c 2.216,0 4,-1.784 4,-4 0,-2.216 -1.784,-4 -4,-4 l -54,0 z m 0,1 54,0 c 1.662,0 3,1.338 3,3 0,1.662 -1.338,3 -3,3 l -54,0 c -1.662,0 -3,-1.338 -3,-3 0,-1.662 1.338,-3 3,-3 z"
       id="rect3855"
       inkscape:connector-curvature="0" />
  </g>
</svg>
